<mxfile host="app.diagrams.net" modified="2022-09-22T19:17:08.646Z" agent="5.0 (Windows NT 10.0; Win64; x64) AppleWebKit/537.36 (KHTML, like Gecko) Chrome/105.0.0.0 Safari/537.36 Edg/105.0.1343.42" etag="xu7jbj7tOy7hIwZeK7WP" version="20.3.6" type="github">
  <diagram id="HkOnIv0-Il1en4yCjf7f" name="Page-1">
    <mxGraphModel dx="1247" dy="742" grid="1" gridSize="10" guides="1" tooltips="1" connect="1" arrows="1" fold="1" page="1" pageScale="1" pageWidth="850" pageHeight="1100" math="0" shadow="0">
      <root>
        <mxCell id="0" />
        <mxCell id="1" parent="0" />
        <UserObject label="client" lucidchartObjectId="GxOQ7dbJj_6w" id="5AhyREm7LePiFTIdX4rm-3">
          <mxCell style="html=1;overflow=block;blockSpacing=1;whiteSpace=wrap;fontSize=16.7;fontColor=#3a414a;align=left;spacing=9;verticalAlign=bottom;strokeColor=#6db1ff;strokeOpacity=100;fillOpacity=70;rounded=1;absoluteArcSize=1;arcSize=9;fillColor=#edf5ff;dashed=1;fixDash=1;dashPattern=16 6;strokeWidth=1.5;" parent="1" vertex="1">
            <mxGeometry x="40" y="130" width="315" height="225" as="geometry" />
          </mxCell>
        </UserObject>
        <UserObject label="server" lucidchartObjectId=".R3Mn~WPphFW" id="5AhyREm7LePiFTIdX4rm-5">
          <mxCell style="html=1;overflow=block;blockSpacing=1;whiteSpace=wrap;fontSize=16.7;fontColor=#3a414a;align=left;spacing=9;verticalAlign=bottom;strokeColor=#6db1ff;strokeOpacity=100;fillOpacity=70;rounded=1;absoluteArcSize=1;arcSize=9;fillColor=#edf5ff;dashed=1;fixDash=1;dashPattern=16 6;strokeWidth=1.5;" parent="1" vertex="1">
            <mxGeometry x="355" y="130" width="315" height="225" as="geometry" />
          </mxCell>
        </UserObject>
        <mxCell id="5AhyREm7LePiFTIdX4rm-41" style="edgeStyle=orthogonalEdgeStyle;rounded=0;orthogonalLoop=1;jettySize=auto;html=1;entryX=0;entryY=0.5;entryDx=0;entryDy=0;" parent="1" source="5AhyREm7LePiFTIdX4rm-8" target="5AhyREm7LePiFTIdX4rm-33" edge="1">
          <mxGeometry relative="1" as="geometry">
            <mxPoint x="437.5" y="192.5" as="targetPoint" />
          </mxGeometry>
        </mxCell>
        <UserObject label="React" lucidchartObjectId="1P3M9k67HUhq" id="5AhyREm7LePiFTIdX4rm-8">
          <mxCell style="html=1;overflow=block;blockSpacing=1;whiteSpace=wrap;fontSize=16.7;fontColor=#3a414a;spacing=9;strokeColor=#3a414a;strokeOpacity=100;fillOpacity=100;rounded=1;absoluteArcSize=1;arcSize=9;fillColor=#cfe4ff;strokeWidth=0.8;" parent="1" vertex="1">
            <mxGeometry x="122.5" y="170" width="150" height="45" as="geometry" />
          </mxCell>
        </UserObject>
        <UserObject label="Browser" lucidchartObjectId="OZ3MXilzy4hK" id="5AhyREm7LePiFTIdX4rm-17">
          <mxCell style="html=1;overflow=block;blockSpacing=1;whiteSpace=wrap;fontSize=16.7;fontColor=#3a414a;spacing=3.8;strokeColor=#3a414a;strokeOpacity=100;fillOpacity=100;rounded=1;absoluteArcSize=1;arcSize=9;fillColor=#fff7a1;strokeWidth=0.8;" parent="1" vertex="1">
            <mxGeometry x="122.5" y="40" width="150" height="45" as="geometry" />
          </mxCell>
        </UserObject>
        <UserObject label="" lucidchartObjectId="AFOQc2M.C~mC" id="5AhyREm7LePiFTIdX4rm-24">
          <mxCell style="html=1;jettySize=18;whiteSpace=wrap;fontSize=13;strokeColor=#3a414a;strokeOpacity=100;strokeWidth=0.8;rounded=1;arcSize=12;edgeStyle=orthogonalEdgeStyle;startArrow=block;startFill=1;endArrow=block;endFill=1;exitX=0.5;exitY=0;exitDx=0;exitDy=0;" parent="1" source="5AhyREm7LePiFTIdX4rm-8" target="5AhyREm7LePiFTIdX4rm-17" edge="1">
            <mxGeometry width="100" height="100" relative="1" as="geometry">
              <Array as="points" />
              <mxPoint x="197" y="92.6400000000001" as="sourcePoint" />
              <mxPoint x="197" y="40.3599999999999" as="targetPoint" />
            </mxGeometry>
          </mxCell>
        </UserObject>
        <UserObject label="Docker Container" lucidchartObjectId="pJOQ~qIymRSE" id="5AhyREm7LePiFTIdX4rm-25">
          <mxCell style="html=1;overflow=block;blockSpacing=1;whiteSpace=wrap;fontSize=16.7;fontColor=#ffffff;fontStyle=1;spacing=3.8;strokeColor=#3a414a;strokeOpacity=100;fillOpacity=100;rounded=1;absoluteArcSize=1;arcSize=9;fillColor=#6db1ff;strokeWidth=0.8;" parent="1" vertex="1">
            <mxGeometry x="40" y="355" width="630" height="45" as="geometry" />
          </mxCell>
        </UserObject>
        <UserObject label="EC2 Instance" lucidchartObjectId="xJOQH47As6YI" id="5AhyREm7LePiFTIdX4rm-26">
          <mxCell style="html=1;overflow=block;blockSpacing=1;whiteSpace=wrap;fontSize=16.7;fontColor=#ffffff;fontStyle=1;spacing=3.8;strokeColor=#3a414a;strokeOpacity=100;fillOpacity=100;rounded=1;absoluteArcSize=1;arcSize=9;fillColor=#fc9432;strokeWidth=0.8;" parent="1" vertex="1">
            <mxGeometry x="40" y="400" width="630" height="45" as="geometry" />
          </mxCell>
        </UserObject>
        <UserObject label="Express" lucidchartObjectId="dQ3MuYbxLNF~" id="5AhyREm7LePiFTIdX4rm-33">
          <mxCell style="html=1;overflow=block;blockSpacing=1;whiteSpace=wrap;fontSize=16.7;fontColor=#3a414a;spacing=9;strokeColor=#3a414a;strokeOpacity=100;fillOpacity=100;rounded=1;absoluteArcSize=1;arcSize=9;fillColor=#cfe4ff;strokeWidth=0.8;" parent="1" vertex="1">
            <mxGeometry x="437.5" y="170" width="150" height="45" as="geometry" />
          </mxCell>
        </UserObject>
        <mxCell id="5AhyREm7LePiFTIdX4rm-40" style="edgeStyle=orthogonalEdgeStyle;rounded=0;orthogonalLoop=1;jettySize=auto;html=1;entryX=0;entryY=0.5;entryDx=0;entryDy=0;" parent="1" source="5AhyREm7LePiFTIdX4rm-34" target="5AhyREm7LePiFTIdX4rm-27" edge="1">
          <mxGeometry relative="1" as="geometry">
            <Array as="points">
              <mxPoint x="720" y="283" />
              <mxPoint x="720" y="378" />
            </Array>
          </mxGeometry>
        </mxCell>
        <UserObject label="Mongoose ODM" lucidchartObjectId="dQ3MuYbxLNF~" id="5AhyREm7LePiFTIdX4rm-34">
          <mxCell style="html=1;overflow=block;blockSpacing=1;whiteSpace=wrap;fontSize=16.7;fontColor=#3a414a;spacing=9;strokeColor=#3a414a;strokeOpacity=100;fillOpacity=100;rounded=1;absoluteArcSize=1;arcSize=9;fillColor=#cfe4ff;strokeWidth=0.8;" parent="1" vertex="1">
            <mxGeometry x="437.5" y="260" width="150" height="45" as="geometry" />
          </mxCell>
        </UserObject>
        <mxCell id="5AhyREm7LePiFTIdX4rm-36" value="" style="group" parent="1" vertex="1" connectable="0">
          <mxGeometry x="770" y="130" width="270" height="270" as="geometry" />
        </mxCell>
        <UserObject label="MongoDB Cluster" lucidchartObjectId="M53MquinrHUs" id="5AhyREm7LePiFTIdX4rm-4">
          <mxCell style="html=1;overflow=block;blockSpacing=1;whiteSpace=wrap;fontSize=16.7;fontColor=#3a414a;align=left;spacing=9;verticalAlign=bottom;strokeColor=#008573;strokeOpacity=100;fillOpacity=100;rounded=1;absoluteArcSize=1;arcSize=9;fillColor=#d7faf5;dashed=1;fixDash=1;dashPattern=16 6;strokeWidth=1.5;" parent="5AhyREm7LePiFTIdX4rm-36" vertex="1">
            <mxGeometry width="270" height="225" as="geometry" />
          </mxCell>
        </UserObject>
        <UserObject label="" lucidchartObjectId="O23MOZMPJ0w7" id="5AhyREm7LePiFTIdX4rm-6">
          <mxCell style="html=1;overflow=block;blockSpacing=1;whiteSpace=wrap;shape=cylinder3;size=4;anchorPointDirection=0;boundedLbl=1;fontSize=13;spacing=3.8;strokeColor=#3a414a;strokeOpacity=100;fillOpacity=100;rounded=1;absoluteArcSize=1;arcSize=9;fillColor=#00c2a8;strokeWidth=0.8;" parent="5AhyREm7LePiFTIdX4rm-36" vertex="1">
            <mxGeometry x="105" y="30" width="120" height="107" as="geometry" />
          </mxCell>
        </UserObject>
        <UserObject label="" lucidchartObjectId="E23M3WIbA4Es" id="5AhyREm7LePiFTIdX4rm-7">
          <mxCell style="html=1;overflow=block;blockSpacing=1;whiteSpace=wrap;shape=cylinder3;size=4;anchorPointDirection=0;boundedLbl=1;fontSize=13;spacing=3.8;strokeColor=#3a414a;strokeOpacity=100;fillOpacity=100;rounded=1;absoluteArcSize=1;arcSize=9;fillColor=#00c2a8;strokeWidth=0.8;" parent="5AhyREm7LePiFTIdX4rm-36" vertex="1">
            <mxGeometry x="75" y="48" width="120" height="107" as="geometry" />
          </mxCell>
        </UserObject>
        <UserObject label="mongo-db" lucidchartObjectId="yW3McqhxT.nb" id="5AhyREm7LePiFTIdX4rm-14">
          <mxCell style="html=1;overflow=block;blockSpacing=1;whiteSpace=wrap;shape=cylinder3;size=4;anchorPointDirection=0;boundedLbl=1;fontSize=16.7;fontColor=#ffffff;fontStyle=1;spacing=3.8;strokeColor=#3a414a;strokeOpacity=100;fillOpacity=100;rounded=1;absoluteArcSize=1;arcSize=9;fillColor=#00c2a8;strokeWidth=0.8;" parent="5AhyREm7LePiFTIdX4rm-36" vertex="1">
            <mxGeometry x="45" y="66" width="120" height="107" as="geometry" />
          </mxCell>
        </UserObject>
        <UserObject label="Mongo Atlas" lucidchartObjectId="dKOQWExFG11e" id="5AhyREm7LePiFTIdX4rm-27">
          <mxCell style="html=1;overflow=block;blockSpacing=1;whiteSpace=wrap;fontSize=16.7;fontColor=#ffffff;fontStyle=1;spacing=3.8;strokeColor=#3a414a;strokeOpacity=100;fillOpacity=100;rounded=1;absoluteArcSize=1;arcSize=9;fillColor=#008573;strokeWidth=0.8;" parent="5AhyREm7LePiFTIdX4rm-36" vertex="1">
            <mxGeometry y="225" width="270" height="45" as="geometry" />
          </mxCell>
        </UserObject>
        <UserObject label="Node.js" lucidchartObjectId="dQ3MuYbxLNF~" id="fi4sXcDQ6xyTpXvrZETw-1">
          <mxCell style="html=1;overflow=block;blockSpacing=1;whiteSpace=wrap;fontSize=16.7;fontColor=#3a414a;spacing=9;strokeColor=#3a414a;strokeOpacity=100;fillOpacity=100;rounded=1;absoluteArcSize=1;arcSize=9;fillColor=#cfe4ff;strokeWidth=0.8;" vertex="1" parent="1">
            <mxGeometry x="437.5" y="215" width="150" height="45" as="geometry" />
          </mxCell>
        </UserObject>
      </root>
    </mxGraphModel>
  </diagram>
</mxfile>
